G04 #@! TF.FileFunction,Paste,Bot*
%FSLAX46Y46*%
G04 Gerber Fmt 4.6, Leading zero omitted, Abs format (unit mm)*
G04 Created by KiCad (PCBNEW 4.0.1-stable) date 2017/06/17 11:06:07*
%MOMM*%
G01*
G04 APERTURE LIST*
%ADD10C,0.100000*%
%ADD11O,1.400000X2.800000*%
%ADD12C,1.422400*%
%ADD13C,1.676400*%
%ADD14O,1.524000X3.048000*%
%ADD15O,3.048000X1.524000*%
%ADD16C,1.524000*%
%ADD17R,0.647700X1.399540*%
%ADD18R,1.099820X0.797560*%
%ADD19R,1.099820X2.799080*%
%ADD20R,1.399540X1.899920*%
%ADD21R,0.998220X1.399540*%
%ADD22R,1.099820X1.198880*%
G04 APERTURE END LIST*
D10*
D11*
X148000000Y-140000000D03*
X146000000Y-140000000D03*
D10*
G36*
X82690361Y-112221945D02*
X81808228Y-107219121D01*
X84309639Y-106778055D01*
X85191772Y-111780879D01*
X82690361Y-112221945D01*
X82690361Y-112221945D01*
G37*
D12*
X104155895Y-66885917D02*
X103444695Y-65654083D01*
X106355600Y-65615917D02*
X105644400Y-64384083D01*
X108555305Y-64345917D02*
X107844105Y-63114083D01*
D13*
X101600591Y-67540000D03*
X110399409Y-62460000D03*
D14*
X94080000Y-96000000D03*
X91540000Y-96000000D03*
X89000000Y-96000000D03*
X86460000Y-96000000D03*
X83920000Y-96000000D03*
X139730000Y-76000000D03*
X142270000Y-76000000D03*
X142270000Y-80000000D03*
X139730000Y-80000000D03*
X142270000Y-84000000D03*
X139730000Y-84000000D03*
D15*
X103250000Y-73960000D03*
X103250000Y-76500000D03*
X103250000Y-79040000D03*
D14*
X112730000Y-69000000D03*
X115270000Y-69000000D03*
D15*
X94200000Y-123260000D03*
X94200000Y-125800000D03*
X94200000Y-128340000D03*
X87500000Y-113190000D03*
X87500000Y-115730000D03*
X87500000Y-118270000D03*
X87500000Y-120810000D03*
D14*
X127150000Y-90500000D03*
X129690000Y-90500000D03*
X132230000Y-90500000D03*
X134770000Y-90500000D03*
X137310000Y-90500000D03*
X139850000Y-90500000D03*
D16*
X92563754Y-73739275D02*
X93641384Y-72661645D01*
X97161645Y-69141384D02*
X98239275Y-68063754D01*
X95760725Y-76936246D02*
X96838355Y-75858616D01*
X100358616Y-72338355D02*
X101436246Y-71260725D01*
X86535663Y-83345233D02*
X87297663Y-82025411D01*
X89786863Y-77713989D02*
X90548863Y-76394167D01*
X90451137Y-85605833D02*
X91213137Y-84286011D01*
X93702337Y-79974589D02*
X94464337Y-78654767D01*
D15*
X119501200Y-143510600D03*
X112998800Y-143510600D03*
X119501200Y-138989400D03*
X112998800Y-138989400D03*
D17*
X130697860Y-75398240D03*
X129598040Y-75398240D03*
X128498220Y-75398240D03*
X127400940Y-75398240D03*
X126301120Y-75398240D03*
X125201300Y-75398240D03*
X124101480Y-75398240D03*
X123001660Y-75398240D03*
X122051700Y-75398240D03*
D18*
X120951880Y-64499100D03*
D19*
X120951880Y-60473200D03*
D20*
X134749160Y-59949960D03*
D21*
X132249800Y-75398240D03*
D22*
X120951880Y-70699240D03*
D10*
G36*
X82615874Y-93124751D02*
X83930675Y-88217848D01*
X86384126Y-88875249D01*
X85069325Y-93782152D01*
X82615874Y-93124751D01*
X82615874Y-93124751D01*
G37*
D15*
X140250000Y-66460000D03*
X140250000Y-69000000D03*
X140250000Y-71540000D03*
X144500000Y-66460000D03*
X144500000Y-69000000D03*
X144500000Y-71540000D03*
D11*
X115500000Y-87000000D03*
X113500000Y-87000000D03*
M02*
