G04 #@! TF.FileFunction,Legend,Bot*
%FSLAX46Y46*%
G04 Gerber Fmt 4.6, Leading zero omitted, Abs format (unit mm)*
G04 Created by KiCad (PCBNEW 4.0.1-stable) date 2017/06/17 11:06:07*
%MOMM*%
G01*
G04 APERTURE LIST*
%ADD10C,0.100000*%
%ADD11C,0.300000*%
%ADD12C,0.066040*%
%ADD13C,0.152400*%
%ADD14C,0.149860*%
%ADD15C,0.048260*%
%ADD16C,0.150000*%
%ADD17C,0.101600*%
%ADD18C,0.000001*%
%ADD19C,0.127000*%
G04 APERTURE END LIST*
D10*
D11*
X113678571Y-98178571D02*
X114821428Y-98607143D01*
X113678571Y-99035714D01*
X168321429Y-119428571D02*
X167178572Y-119857143D01*
X168321429Y-120285714D01*
D12*
X137056000Y-90246000D02*
X137564000Y-90246000D01*
X137564000Y-90246000D02*
X137564000Y-90754000D01*
X137056000Y-90754000D02*
X137564000Y-90754000D01*
X137056000Y-90246000D02*
X137056000Y-90754000D01*
X134516000Y-90246000D02*
X135024000Y-90246000D01*
X135024000Y-90246000D02*
X135024000Y-90754000D01*
X134516000Y-90754000D02*
X135024000Y-90754000D01*
X134516000Y-90246000D02*
X134516000Y-90754000D01*
X131976000Y-90246000D02*
X132484000Y-90246000D01*
X132484000Y-90246000D02*
X132484000Y-90754000D01*
X131976000Y-90754000D02*
X132484000Y-90754000D01*
X131976000Y-90246000D02*
X131976000Y-90754000D01*
X129436000Y-90246000D02*
X129944000Y-90246000D01*
X129944000Y-90246000D02*
X129944000Y-90754000D01*
X129436000Y-90754000D02*
X129944000Y-90754000D01*
X129436000Y-90246000D02*
X129436000Y-90754000D01*
X126896000Y-90246000D02*
X127404000Y-90246000D01*
X127404000Y-90246000D02*
X127404000Y-90754000D01*
X126896000Y-90754000D02*
X127404000Y-90754000D01*
X126896000Y-90246000D02*
X126896000Y-90754000D01*
X139596000Y-90246000D02*
X140104000Y-90246000D01*
X140104000Y-90246000D02*
X140104000Y-90754000D01*
X139596000Y-90754000D02*
X140104000Y-90754000D01*
X139596000Y-90246000D02*
X139596000Y-90754000D01*
D13*
X134135000Y-91770000D02*
X135405000Y-91770000D01*
X135405000Y-91770000D02*
X136040000Y-91135000D01*
X136040000Y-91135000D02*
X136040000Y-89865000D01*
X136040000Y-89865000D02*
X135405000Y-89230000D01*
X136040000Y-91135000D02*
X136675000Y-91770000D01*
X136675000Y-91770000D02*
X137945000Y-91770000D01*
X137945000Y-91770000D02*
X138580000Y-91135000D01*
X138580000Y-91135000D02*
X138580000Y-89865000D01*
X138580000Y-89865000D02*
X137945000Y-89230000D01*
X137945000Y-89230000D02*
X136675000Y-89230000D01*
X136675000Y-89230000D02*
X136040000Y-89865000D01*
X130960000Y-91135000D02*
X131595000Y-91770000D01*
X131595000Y-91770000D02*
X132865000Y-91770000D01*
X132865000Y-91770000D02*
X133500000Y-91135000D01*
X133500000Y-91135000D02*
X133500000Y-89865000D01*
X133500000Y-89865000D02*
X132865000Y-89230000D01*
X132865000Y-89230000D02*
X131595000Y-89230000D01*
X131595000Y-89230000D02*
X130960000Y-89865000D01*
X134135000Y-91770000D02*
X133500000Y-91135000D01*
X133500000Y-89865000D02*
X134135000Y-89230000D01*
X135405000Y-89230000D02*
X134135000Y-89230000D01*
X126515000Y-91770000D02*
X127785000Y-91770000D01*
X127785000Y-91770000D02*
X128420000Y-91135000D01*
X128420000Y-91135000D02*
X128420000Y-89865000D01*
X128420000Y-89865000D02*
X127785000Y-89230000D01*
X128420000Y-91135000D02*
X129055000Y-91770000D01*
X129055000Y-91770000D02*
X130325000Y-91770000D01*
X130325000Y-91770000D02*
X130960000Y-91135000D01*
X130960000Y-91135000D02*
X130960000Y-89865000D01*
X130960000Y-89865000D02*
X130325000Y-89230000D01*
X130325000Y-89230000D02*
X129055000Y-89230000D01*
X129055000Y-89230000D02*
X128420000Y-89865000D01*
X125880000Y-91135000D02*
X125880000Y-89865000D01*
X126515000Y-91770000D02*
X125880000Y-91135000D01*
X125880000Y-89865000D02*
X126515000Y-89230000D01*
X127785000Y-89230000D02*
X126515000Y-89230000D01*
X139215000Y-91770000D02*
X140485000Y-91770000D01*
X140485000Y-91770000D02*
X141120000Y-91135000D01*
X141120000Y-91135000D02*
X141120000Y-89865000D01*
X141120000Y-89865000D02*
X140485000Y-89230000D01*
X139215000Y-91770000D02*
X138580000Y-91135000D01*
X138580000Y-89865000D02*
X139215000Y-89230000D01*
X140485000Y-89230000D02*
X139215000Y-89230000D01*
D14*
X121000140Y-71700000D02*
X121000140Y-74948660D01*
X133098160Y-74948660D02*
X134848220Y-74948660D01*
X134848220Y-74948660D02*
X134848220Y-61298700D01*
X133598540Y-59000000D02*
X122000900Y-59000000D01*
X121401460Y-74948660D02*
X121000140Y-74948660D01*
X121000140Y-63699000D02*
X121000140Y-62197860D01*
X121000140Y-65299200D02*
X121000140Y-69698480D01*
D10*
X122000900Y-65350000D02*
X122000900Y-57730000D01*
X132999100Y-65350000D02*
X132999100Y-57730000D01*
D15*
X122420000Y-58202440D02*
X132580000Y-58202440D01*
D10*
X121000140Y-74948660D02*
X134848220Y-74948660D01*
X134848220Y-74948660D02*
X134848220Y-59000000D01*
X121000140Y-59000000D02*
X121000140Y-74948660D01*
X134848220Y-59000000D02*
X121000140Y-59000000D01*
X120502300Y-69949940D02*
X121500520Y-69949940D01*
X121500520Y-69949940D02*
X121500520Y-65799580D01*
X121500520Y-65799580D02*
X120502300Y-65799580D01*
X120502300Y-65799580D02*
X120502300Y-69949940D01*
X120502300Y-75098520D02*
X121500520Y-75098520D01*
X121500520Y-75098520D02*
X121500520Y-71448540D01*
X121500520Y-71448540D02*
X120502300Y-71448540D01*
X120502300Y-71448540D02*
X120502300Y-75098520D01*
X121800240Y-61499360D02*
X122501280Y-61499360D01*
X122501280Y-61499360D02*
X122501280Y-68999980D01*
X122501280Y-68999980D02*
X121800240Y-68999980D01*
X121800240Y-68999980D02*
X121800240Y-61499360D01*
X130697860Y-60849120D02*
X133397880Y-60849120D01*
X133397880Y-60849120D02*
X133397880Y-59000000D01*
X133397880Y-59000000D02*
X130697860Y-59000000D01*
X130697860Y-59000000D02*
X130697860Y-60849120D01*
X122501280Y-69998200D02*
X130997580Y-69998200D01*
X130997580Y-69998200D02*
X130997580Y-68499600D01*
X130997580Y-68499600D02*
X122501280Y-68499600D01*
X122501280Y-68499600D02*
X122501280Y-69998200D01*
D16*
X166600000Y-119000000D02*
X166900000Y-119000000D01*
X166700000Y-117500000D02*
X166700000Y-115700000D01*
X166700000Y-120200000D02*
X166700000Y-118500000D01*
X166700000Y-120200000D02*
X163400000Y-120200000D01*
X163400000Y-120200000D02*
X163400000Y-115700000D01*
X163400000Y-115700000D02*
X166700000Y-115700000D01*
D17*
X85450972Y-111203767D02*
X86701677Y-110983234D01*
X86617665Y-110506775D01*
X86537104Y-110398161D01*
X86467046Y-110349106D01*
X86337429Y-110310552D01*
X86158757Y-110342056D01*
X86050143Y-110422617D01*
X86001087Y-110492675D01*
X85962533Y-110622292D01*
X86046546Y-111098751D01*
X85598284Y-109949609D02*
X85493268Y-109354035D01*
X85261943Y-110131734D02*
X86439138Y-109494298D01*
X85114921Y-109297930D01*
X85041410Y-108881028D02*
X86292116Y-108660495D01*
X86239608Y-108362708D01*
X86148546Y-108194538D01*
X86008428Y-108096425D01*
X85878811Y-108057871D01*
X85630080Y-108040320D01*
X85451408Y-108071825D01*
X85223680Y-108173389D01*
X85115067Y-108253949D01*
X85016955Y-108394068D01*
X84988902Y-108583241D01*
X85041410Y-108881028D01*
X85962970Y-107490349D02*
X86012025Y-107420291D01*
X86050580Y-107290675D01*
X85998072Y-106992887D01*
X85917511Y-106884274D01*
X85847452Y-106835218D01*
X85717835Y-106796664D01*
X85598721Y-106817667D01*
X85430550Y-106908729D01*
X84841880Y-107749437D01*
X84705359Y-106975191D01*
D18*
X83795788Y-109446616D02*
X83794243Y-109472680D01*
X83786329Y-109455654D01*
X83784714Y-109474360D01*
X83774348Y-109450396D01*
X83769228Y-109477091D02*
X83764818Y-109452077D01*
X83743024Y-109481712D02*
X83749262Y-109468330D01*
X83757317Y-109479191D02*
X83752906Y-109454177D01*
X83743377Y-109455857D01*
X83741205Y-109457469D01*
X83740225Y-109458871D01*
X83739453Y-109461463D01*
X83740083Y-109465036D01*
X83741695Y-109467208D01*
X83743096Y-109468190D01*
X83745688Y-109468960D01*
X83755217Y-109467280D01*
X83729993Y-109470500D02*
X83721655Y-109471970D01*
X83720392Y-109485702D02*
X83732303Y-109483602D01*
X83727892Y-109458588D01*
X83715981Y-109460688D01*
X83709671Y-109487592D02*
X83705260Y-109462578D01*
X83695731Y-109464259D01*
X83693559Y-109465870D01*
X83692579Y-109467272D01*
X83691807Y-109469864D01*
X83692437Y-109473437D01*
X83694049Y-109475609D01*
X83695450Y-109476591D01*
X83698042Y-109477361D01*
X83707571Y-109475681D01*
X83684588Y-109484646D02*
X83672677Y-109486747D01*
X83688231Y-109491373D02*
X83675482Y-109467829D01*
X83671555Y-109494313D01*
X83663217Y-109495784D02*
X83658806Y-109470770D01*
X83652851Y-109471820D01*
X83649487Y-109473641D01*
X83647525Y-109476444D01*
X83646754Y-109479036D01*
X83646403Y-109484010D01*
X83647033Y-109487584D01*
X83649065Y-109492139D01*
X83650676Y-109494311D01*
X83653478Y-109496273D01*
X83657262Y-109496834D01*
X83663217Y-109495784D01*
X83639184Y-109498794D02*
X83635820Y-109500614D01*
X83629865Y-109501664D01*
X83627273Y-109500894D01*
X83625871Y-109499912D01*
X83624261Y-109497740D01*
X83623841Y-109495358D01*
X83624611Y-109492766D01*
X83625593Y-109491365D01*
X83627765Y-109489753D01*
X83632320Y-109487722D01*
X83634492Y-109486111D01*
X83635472Y-109484710D01*
X83636244Y-109482118D01*
X83635824Y-109479736D01*
X83634212Y-109477563D01*
X83632811Y-109476582D01*
X83630219Y-109475810D01*
X83624263Y-109476860D01*
X83620900Y-109478682D01*
X83614380Y-109504395D02*
X83609970Y-109479381D01*
X83604783Y-109498718D01*
X83593294Y-109482321D01*
X83597704Y-109507335D01*
X83585792Y-109509436D02*
X83581382Y-109484422D01*
X83575426Y-109485472D01*
X83572063Y-109487293D01*
X83570100Y-109490096D01*
X83569330Y-109492688D01*
X83568978Y-109497663D01*
X83569609Y-109501236D01*
X83571640Y-109505791D01*
X83573251Y-109507963D01*
X83576053Y-109509925D01*
X83579837Y-109510486D01*
X83585792Y-109509436D01*
X83557979Y-109491005D02*
X83556578Y-109490024D01*
X83553985Y-109489252D01*
X83548030Y-109490302D01*
X83545858Y-109491914D01*
X83544876Y-109493316D01*
X83544106Y-109495908D01*
X83544526Y-109498290D01*
X83546346Y-109501653D01*
X83563160Y-109513426D01*
X83547676Y-109516157D01*
X83543332Y-109519380D02*
X83524274Y-109522740D01*
X83501576Y-109498493D02*
X83513487Y-109496393D01*
X83516779Y-109508095D01*
X83515377Y-109507114D01*
X83512785Y-109506343D01*
X83506830Y-109507393D01*
X83504658Y-109509004D01*
X83503676Y-109510406D01*
X83502906Y-109512998D01*
X83503956Y-109518953D01*
X83505566Y-109521125D01*
X83506968Y-109522107D01*
X83509560Y-109522877D01*
X83515515Y-109521827D01*
X83517688Y-109520217D01*
X83518669Y-109518815D01*
X83480415Y-109510822D02*
X83483355Y-109527498D01*
X83484690Y-109500243D02*
X83493797Y-109517060D01*
X83478311Y-109519791D01*
X83468572Y-109520279D02*
X83449514Y-109523640D01*
X83422960Y-109512355D02*
X83434872Y-109510255D01*
X83438164Y-109521957D01*
X83436762Y-109520976D01*
X83434170Y-109520205D01*
X83428215Y-109521255D01*
X83426042Y-109522866D01*
X83425061Y-109524268D01*
X83424290Y-109526860D01*
X83425340Y-109532815D01*
X83426951Y-109534987D01*
X83428353Y-109535969D01*
X83430945Y-109536739D01*
X83436900Y-109535689D01*
X83439072Y-109534079D01*
X83440054Y-109532677D01*
X83421836Y-109540803D02*
X83402778Y-109544163D01*
X83387227Y-109518656D02*
X83384844Y-109519076D01*
X83382672Y-109520688D01*
X83381692Y-109522090D01*
X83380920Y-109524682D01*
X83380570Y-109529656D01*
X83381620Y-109535612D01*
X83383650Y-109540166D01*
X83385262Y-109542338D01*
X83386663Y-109543320D01*
X83389255Y-109544090D01*
X83391637Y-109543670D01*
X83393810Y-109542060D01*
X83394791Y-109540658D01*
X83395562Y-109538066D01*
X83395913Y-109533091D01*
X83394863Y-109527136D01*
X83392831Y-109522582D01*
X83391221Y-109520409D01*
X83389819Y-109519428D01*
X83387227Y-109518656D01*
X83366486Y-109533367D02*
X83368658Y-109531757D01*
X83369639Y-109530355D01*
X83370411Y-109527763D01*
X83370201Y-109526572D01*
X83368589Y-109524400D01*
X83367188Y-109523418D01*
X83364596Y-109522647D01*
X83359831Y-109523487D01*
X83357659Y-109525099D01*
X83356678Y-109526500D01*
X83355907Y-109529092D01*
X83356117Y-109530283D01*
X83357728Y-109532455D01*
X83359129Y-109533437D01*
X83361722Y-109534207D01*
X83366486Y-109533367D01*
X83369078Y-109534139D01*
X83370479Y-109535120D01*
X83372091Y-109537292D01*
X83372931Y-109542056D01*
X83372159Y-109544649D01*
X83371179Y-109546050D01*
X83369006Y-109547661D01*
X83364242Y-109548501D01*
X83361650Y-109547730D01*
X83360248Y-109546749D01*
X83358637Y-109544577D01*
X83357797Y-109539812D01*
X83358568Y-109537220D01*
X83359549Y-109535819D01*
X83361722Y-109534207D01*
D19*
X115804524Y-113436905D02*
X116711667Y-113436905D01*
X116893095Y-113376429D01*
X117014048Y-113255477D01*
X117074524Y-113074048D01*
X117074524Y-112953096D01*
X117074524Y-114041667D02*
X115804524Y-114041667D01*
X115804524Y-114525476D01*
X115865000Y-114646429D01*
X115925476Y-114706905D01*
X116046429Y-114767381D01*
X116227857Y-114767381D01*
X116348810Y-114706905D01*
X116409286Y-114646429D01*
X116469762Y-114525476D01*
X116469762Y-114041667D01*
X117074524Y-115976905D02*
X117074524Y-115251191D01*
X117074524Y-115614048D02*
X115804524Y-115614048D01*
X115985952Y-115493096D01*
X116106905Y-115372143D01*
X116167381Y-115251191D01*
X115804524Y-116763096D02*
X115804524Y-116884048D01*
X115865000Y-117005000D01*
X115925476Y-117065477D01*
X116046429Y-117125953D01*
X116288333Y-117186429D01*
X116590714Y-117186429D01*
X116832619Y-117125953D01*
X116953571Y-117065477D01*
X117014048Y-117005000D01*
X117074524Y-116884048D01*
X117074524Y-116763096D01*
X117014048Y-116642143D01*
X116953571Y-116581667D01*
X116832619Y-116521191D01*
X116590714Y-116460715D01*
X116288333Y-116460715D01*
X116046429Y-116521191D01*
X115925476Y-116581667D01*
X115865000Y-116642143D01*
X115804524Y-116763096D01*
D16*
X137733714Y-62689429D02*
X137733714Y-61165429D01*
X137225714Y-62254000D01*
X136717714Y-61165429D01*
X136717714Y-62689429D01*
X136064571Y-61310571D02*
X135992000Y-61238000D01*
X135846857Y-61165429D01*
X135484000Y-61165429D01*
X135338857Y-61238000D01*
X135266286Y-61310571D01*
X135193714Y-61455714D01*
X135193714Y-61600857D01*
X135266286Y-61818571D01*
X136137143Y-62689429D01*
X135193714Y-62689429D01*
D17*
X87802781Y-89704155D02*
X86576055Y-89375455D01*
X86450836Y-89842779D01*
X86477947Y-89975263D01*
X86520710Y-90049330D01*
X86621889Y-90139051D01*
X86797135Y-90186008D01*
X86929619Y-90158897D01*
X87003687Y-90116134D01*
X87093407Y-90014955D01*
X87218626Y-89547631D01*
X87139240Y-90778552D02*
X86982716Y-91362707D01*
X87521038Y-90755634D02*
X86184745Y-90835843D01*
X87301905Y-91573452D01*
X87192338Y-91982360D02*
X85965612Y-91653660D01*
X85887350Y-91945737D01*
X85898808Y-92136636D01*
X85984334Y-92284772D01*
X86085514Y-92374492D01*
X86303523Y-92495517D01*
X86478769Y-92542474D01*
X86728084Y-92546669D01*
X86860567Y-92519558D01*
X87008704Y-92434031D01*
X87114076Y-92274438D01*
X87192338Y-91982360D01*
X86691461Y-93851656D02*
X86879290Y-93150671D01*
X86785376Y-93501163D02*
X85558650Y-93172463D01*
X85765201Y-93102590D01*
X85913337Y-93017063D01*
X86003057Y-92915885D01*
D18*
X84790636Y-91076623D02*
X84778221Y-91099592D01*
X84778244Y-91080816D01*
X84768875Y-91097088D01*
X84769607Y-91070988D01*
X84753686Y-91093018D02*
X84760260Y-91068483D01*
X84727983Y-91086131D02*
X84739292Y-91076639D01*
X84742003Y-91089887D02*
X84748577Y-91065353D01*
X84739231Y-91062849D01*
X84736581Y-91063391D01*
X84735100Y-91064247D01*
X84733305Y-91066271D01*
X84732366Y-91069775D01*
X84732909Y-91072425D01*
X84733763Y-91073906D01*
X84735787Y-91075700D01*
X84745133Y-91078205D01*
X84720912Y-91070463D02*
X84712734Y-91068272D01*
X84705785Y-91080183D02*
X84717468Y-91083313D01*
X84724042Y-91058779D01*
X84712359Y-91055648D01*
X84695270Y-91077365D02*
X84701844Y-91052831D01*
X84692498Y-91050327D01*
X84689848Y-91050869D01*
X84688367Y-91051725D01*
X84686573Y-91053749D01*
X84685634Y-91057253D01*
X84686176Y-91059903D01*
X84687031Y-91061384D01*
X84689055Y-91063178D01*
X84698401Y-91065683D01*
X84673783Y-91064095D02*
X84662100Y-91060965D01*
X84674241Y-91071731D02*
X84672637Y-91045005D01*
X84657885Y-91067348D01*
X84649707Y-91065157D02*
X84656281Y-91040622D01*
X84650440Y-91039057D01*
X84646621Y-91039287D01*
X84643659Y-91040997D01*
X84641865Y-91043021D01*
X84639444Y-91047381D01*
X84638504Y-91050886D01*
X84638421Y-91055872D01*
X84638963Y-91058522D01*
X84640673Y-91061485D01*
X84643866Y-91063592D01*
X84649707Y-91065157D01*
X84626654Y-91057728D02*
X84622836Y-91057957D01*
X84616995Y-91056392D01*
X84614971Y-91054598D01*
X84614115Y-91053116D01*
X84613574Y-91050466D01*
X84614200Y-91048130D01*
X84615994Y-91046106D01*
X84617475Y-91045251D01*
X84620125Y-91044709D01*
X84625111Y-91044793D01*
X84627761Y-91044250D01*
X84629242Y-91043395D01*
X84631036Y-91041372D01*
X84631663Y-91039035D01*
X84631120Y-91036386D01*
X84630265Y-91034904D01*
X84628242Y-91033109D01*
X84622400Y-91031544D01*
X84618582Y-91031774D01*
X84601806Y-91052322D02*
X84608380Y-91027787D01*
X84595507Y-91043121D01*
X84592024Y-91023405D01*
X84585450Y-91047939D01*
X84573767Y-91044809D02*
X84580341Y-91020274D01*
X84574500Y-91018709D01*
X84570681Y-91018939D01*
X84567718Y-91020649D01*
X84565925Y-91022673D01*
X84563504Y-91027033D01*
X84562564Y-91030538D01*
X84562481Y-91035524D01*
X84563023Y-91038174D01*
X84564733Y-91041136D01*
X84567926Y-91043244D01*
X84573767Y-91044809D01*
X84556348Y-91016351D02*
X84555493Y-91014869D01*
X84553469Y-91013074D01*
X84547629Y-91011509D01*
X84544979Y-91012052D01*
X84543497Y-91012907D01*
X84541703Y-91014931D01*
X84541077Y-91017267D01*
X84541306Y-91021085D01*
X84551569Y-91038861D01*
X84536381Y-91034791D01*
X84531082Y-91035877D02*
X84512389Y-91030868D01*
X84502065Y-90999300D02*
X84513748Y-91002431D01*
X84511786Y-91014428D01*
X84510930Y-91012946D01*
X84508907Y-91011152D01*
X84503066Y-91009587D01*
X84500416Y-91010128D01*
X84498934Y-91010984D01*
X84497140Y-91013008D01*
X84495575Y-91018849D01*
X84496117Y-91021498D01*
X84496973Y-91022980D01*
X84498996Y-91024774D01*
X84504837Y-91026339D01*
X84507487Y-91025797D01*
X84508969Y-91024942D01*
X84477676Y-91001531D02*
X84473294Y-91017887D01*
X84486022Y-90993750D02*
X84487168Y-91012840D01*
X84471980Y-91008770D01*
X84462947Y-91005097D02*
X84444254Y-91000089D01*
X84424957Y-90978639D02*
X84436640Y-90981770D01*
X84434678Y-90993767D01*
X84433822Y-90992285D01*
X84431799Y-90990491D01*
X84425958Y-90988926D01*
X84423308Y-90989467D01*
X84421826Y-90990323D01*
X84420032Y-90992347D01*
X84418467Y-90998188D01*
X84419009Y-91000837D01*
X84419865Y-91002319D01*
X84421888Y-91004113D01*
X84427729Y-91005678D01*
X84430379Y-91005136D01*
X84431861Y-91004281D01*
X84411916Y-91003946D02*
X84393223Y-90998938D01*
X84389908Y-90969248D02*
X84387572Y-90968622D01*
X84384922Y-90969165D01*
X84383441Y-90970020D01*
X84381646Y-90972044D01*
X84379226Y-90976404D01*
X84377661Y-90982245D01*
X84377577Y-90987231D01*
X84378119Y-90989881D01*
X84378974Y-90991362D01*
X84380998Y-90993156D01*
X84383334Y-90993782D01*
X84385984Y-90993241D01*
X84387466Y-90992385D01*
X84389260Y-90990361D01*
X84391681Y-90986001D01*
X84393246Y-90980161D01*
X84393329Y-90975174D01*
X84392787Y-90972525D01*
X84391932Y-90971043D01*
X84389908Y-90969248D01*
X84364894Y-90973815D02*
X84367543Y-90973274D01*
X84369024Y-90972418D01*
X84370819Y-90970394D01*
X84371132Y-90969227D01*
X84370589Y-90966577D01*
X84369735Y-90965095D01*
X84367711Y-90963300D01*
X84363038Y-90962048D01*
X84360388Y-90962591D01*
X84358906Y-90963446D01*
X84357113Y-90965470D01*
X84356800Y-90966638D01*
X84357341Y-90969287D01*
X84358197Y-90970769D01*
X84360221Y-90972563D01*
X84364894Y-90973815D01*
X84366917Y-90975610D01*
X84367772Y-90977091D01*
X84368315Y-90979741D01*
X84367063Y-90984414D01*
X84365268Y-90986437D01*
X84363787Y-90987293D01*
X84361137Y-90987835D01*
X84356464Y-90986583D01*
X84354441Y-90984789D01*
X84353585Y-90983307D01*
X84353043Y-90980657D01*
X84354295Y-90975984D01*
X84356089Y-90973961D01*
X84357571Y-90973106D01*
X84360221Y-90972563D01*
D19*
X166904524Y-112836905D02*
X167811667Y-112836905D01*
X167993095Y-112776429D01*
X168114048Y-112655477D01*
X168174524Y-112474048D01*
X168174524Y-112353096D01*
X168174524Y-113441667D02*
X166904524Y-113441667D01*
X166904524Y-113925476D01*
X166965000Y-114046429D01*
X167025476Y-114106905D01*
X167146429Y-114167381D01*
X167327857Y-114167381D01*
X167448810Y-114106905D01*
X167509286Y-114046429D01*
X167569762Y-113925476D01*
X167569762Y-113441667D01*
X168174524Y-115376905D02*
X168174524Y-114651191D01*
X168174524Y-115014048D02*
X166904524Y-115014048D01*
X167085952Y-114893096D01*
X167206905Y-114772143D01*
X167267381Y-114651191D01*
X167025476Y-115860715D02*
X166965000Y-115921191D01*
X166904524Y-116042143D01*
X166904524Y-116344524D01*
X166965000Y-116465477D01*
X167025476Y-116525953D01*
X167146429Y-116586429D01*
X167267381Y-116586429D01*
X167448810Y-116525953D01*
X168174524Y-115800239D01*
X168174524Y-116586429D01*
M02*
