M48
;DRILL file {KiCad 4.0.1-stable} date 2017/06/17 11:06:09
;FORMAT={-:-/ absolute / metric / decimal}
FMAT,2
METRIC,TZ
T1C0.400
T2C0.500
T3C0.550
T4C0.800
T5C1.000
T6C1.016
T7C1.100
T8C3.000
%
G90
G05
M71
T1
X87.5Y-107.5
X89.2Y-101.1
X90.938Y-124.248
X91.936Y-101.209
X92.152Y-127.074
X92.2Y-88.7
X92.676Y-101.863
X92.749Y-106.332
X95.Y-105.5
X95.6Y-118.
X95.8Y-113.5
X97.218Y-123.362
X97.421Y-115.73
X98.Y-81.5
X98.503Y-116.558
X99.Y-95.
X99.439Y-121.927
X100.5Y-101.
X100.5Y-109.
X101.865Y-126.909
X101.936Y-124.769
X102.408Y-129.638
X102.462Y-123.14
X102.9Y-121.5
X102.981Y-124.688
X103.Y-82.5
X103.25Y-126.899
X103.358Y-129.588
X103.5Y-112.5
X103.9Y-133.9
X103.984Y-130.342
X104.149Y-117.551
X104.5Y-104.
X104.772Y-122.
X104.781Y-126.899
X105.056Y-129.434
X105.761Y-116.483
X106.442Y-117.175
X106.603Y-123.497
X106.78Y-120.964
X106.89Y-122.096
X107.361Y-114.227
X108.325Y-120.456
X108.844Y-117.381
X109.5Y-80.5
X109.99Y-127.241
X110.Y-106.5
X110.Y-137.5
X110.873Y-121.733
X110.958Y-126.813
X111.Y-95.7
X111.537Y-84.639
X111.871Y-119.506
X112.557Y-116.551
X113.38Y-76.5
X114.224Y-97.077
X114.9Y-94.8
X115.5Y-61.5
X115.633Y-82.389
X115.8Y-91.3
X116.939Y-73.27
X117.149Y-77.289
X117.301Y-119.348
X117.5Y-85.5
X117.5Y-137.5
X118.028Y-96.963
X118.483Y-112.895
X119.8Y-69.766
X120.208Y-78.399
X120.225Y-73.42
X120.615Y-79.996
X120.683Y-67.938
X122.Y-87.5
X122.Y-129.5
X122.327Y-71.025
X122.7Y-69.4
X122.846Y-77.962
X123.Y-126.5
X123.529Y-89.399
X124.Y-73.
X124.376Y-77.179
X124.9Y-81.3
X125.782Y-82.424
X126.957Y-76.676
X127.8Y-81.
X128.Y-64.
X129.25Y-74.136
X130.709Y-80.549
X131.45Y-79.118
X132.Y-69.
X132.Y-87.
X132.5Y-72.5
X133.5Y-120.5
X134.Y-138.5
X134.6Y-72.4
X138.062Y-87.452
X138.62Y-133.919
X139.258Y-133.189
X141.613Y-89.335
X143.5Y-129.5
X145.29Y-133.675
X145.504Y-130.258
X145.748Y-128.851
X146.5Y-63.5
X147.5Y-84.
X147.637Y-131.306
X147.669Y-129.294
X151.3Y-128.6
X151.5Y-119.
X153.5Y-101.
X157.Y-132.5
X157.1Y-123.6
X164.5Y-124.5
X169.Y-109.
T4
X113.5Y-87.
X115.5Y-87.
X146.Y-140.
X148.Y-140.
X165.Y-117.
X165.Y-119.
T5
X83.5Y-109.5
X84.5Y-91.
X103.5Y-91.2
X108.5Y-94.8
X113.5Y-91.2
T6
X83.92Y-96.
X86.46Y-96.
X86.917Y-82.685
X87.5Y-113.19
X87.5Y-115.73
X87.5Y-118.27
X87.5Y-120.81
X89.Y-96.
X90.168Y-77.054
X90.832Y-84.946
X91.54Y-96.
X93.103Y-73.2
X94.08Y-96.
X94.083Y-79.315
X94.2Y-123.26
X94.2Y-125.8
X94.2Y-128.34
X96.3Y-76.397
X97.7Y-68.603
X100.897Y-71.8
X103.25Y-73.96
X103.25Y-76.5
X103.25Y-79.04
X112.73Y-69.
X112.999Y-138.989
X112.999Y-143.511
X115.27Y-69.
X116.5Y-98.65
X116.5Y-101.19
X116.5Y-103.73
X116.5Y-106.27
X116.5Y-108.81
X116.5Y-111.35
X119.501Y-138.989
X119.501Y-143.511
X127.15Y-90.5
X129.69Y-90.5
X132.23Y-90.5
X134.77Y-90.5
X137.31Y-90.5
X139.73Y-76.
X139.73Y-80.
X139.73Y-84.
X139.85Y-90.5
X140.25Y-66.46
X140.25Y-69.
X140.25Y-71.54
X142.27Y-76.
X142.27Y-80.
X142.27Y-84.
X144.5Y-66.46
X144.5Y-69.
X144.5Y-71.54
T7
X101.601Y-67.54
X103.8Y-66.27
X106.Y-65.
X108.2Y-63.73
X110.399Y-62.46
T8
X85.Y-103.
X95.Y-100.
X95.Y-110.
X108.Y-100.
X108.Y-110.
X124.Y-144.
X127.5Y-123.
X127.5Y-136.
X139.5Y-123.
X139.5Y-136.
X141.5Y-61.5
X150.5Y-99.25
X150.5Y-111.5
X163.5Y-99.5
X163.5Y-111.5
X169.Y-97.5
T2
X153.5Y-95.625G85X153.5Y-94.975
G05
X160.5Y-95.625G85X160.5Y-94.975
G05
T3
X154.65Y-98.G85X154.35Y-98.
G05
X159.65Y-98.G85X159.35Y-98.
G05
T0
M30
