G04 #@! TF.FileFunction,Soldermask,Top*
%FSLAX46Y46*%
G04 Gerber Fmt 4.6, Leading zero omitted, Abs format (unit mm)*
G04 Created by KiCad (PCBNEW 4.0.1-stable) date 2017/06/17 11:06:08*
%MOMM*%
G01*
G04 APERTURE LIST*
%ADD10C,0.100000*%
%ADD11R,1.400000X1.200000*%
%ADD12C,1.800000*%
%ADD13R,1.998980X1.998980*%
%ADD14R,1.049020X1.079500*%
%ADD15R,1.079500X1.049020*%
%ADD16R,2.999740X1.597660*%
%ADD17R,6.197600X5.798820*%
%ADD18R,1.297940X1.399540*%
%ADD19R,2.298700X1.498600*%
%ADD20C,1.422400*%
%ADD21C,1.676400*%
%ADD22O,1.524000X3.048000*%
%ADD23R,1.300000X0.250000*%
%ADD24R,0.250000X1.300000*%
%ADD25O,2.000000X0.900000*%
%ADD26R,2.000000X0.900000*%
%ADD27R,4.300000X4.300000*%
%ADD28R,1.900000X1.100000*%
%ADD29R,3.497580X2.499360*%
%ADD30R,4.297680X2.499360*%
%ADD31R,0.762000X0.406400*%
%ADD32O,3.048000X1.524000*%
%ADD33C,1.524000*%
%ADD34R,1.000000X1.400000*%
%ADD35R,1.297940X1.597660*%
%ADD36R,1.899920X3.398520*%
%ADD37R,0.998220X0.998220*%
%ADD38R,0.400000X1.350000*%
%ADD39O,1.550000X1.550000*%
%ADD40O,1.250000X1.250000*%
%ADD41O,2.800000X1.400000*%
%ADD42O,1.400000X2.800000*%
G04 APERTURE END LIST*
D10*
D11*
X114900000Y-125350000D03*
X117100000Y-125350000D03*
X117100000Y-123650000D03*
X114900000Y-123650000D03*
D10*
G36*
X82690361Y-112221945D02*
X81808228Y-107219121D01*
X84309639Y-106778055D01*
X85191772Y-111780879D01*
X82690361Y-112221945D01*
X82690361Y-112221945D01*
G37*
D12*
X108500000Y-94800000D03*
X113500000Y-91200000D03*
X103500000Y-91200000D03*
D13*
X160500000Y-120748980D03*
X160500000Y-116751020D03*
D14*
X117626240Y-130500000D03*
X119373760Y-130500000D03*
X117626240Y-128500000D03*
X119373760Y-128500000D03*
D15*
X110500000Y-140126240D03*
X110500000Y-141873760D03*
D14*
X107626240Y-72000000D03*
X109373760Y-72000000D03*
X126123760Y-80250000D03*
X124376240Y-80250000D03*
D16*
X106201940Y-74221620D03*
X106201940Y-78778380D03*
D17*
X113379980Y-76500000D03*
D14*
X94626240Y-91000000D03*
X96373760Y-91000000D03*
X118126240Y-134000000D03*
X119873760Y-134000000D03*
D18*
X119148080Y-114200220D03*
D19*
X118000000Y-118048320D03*
D18*
X116851920Y-114200220D03*
D15*
X129250000Y-78626240D03*
X129250000Y-80373760D03*
X119000000Y-80373760D03*
X119000000Y-78626240D03*
X121750000Y-80373760D03*
X121750000Y-78626240D03*
X132750000Y-80373760D03*
X132750000Y-78626240D03*
D14*
X96373760Y-93000000D03*
X94626240Y-93000000D03*
X119873760Y-136000000D03*
X118126240Y-136000000D03*
X108626240Y-85500000D03*
X110373760Y-85500000D03*
X110373760Y-87500000D03*
X108626240Y-87500000D03*
D15*
X119000000Y-83126240D03*
X119000000Y-84873760D03*
D20*
X104155895Y-66885917D02*
X103444695Y-65654083D01*
X106355600Y-65615917D02*
X105644400Y-64384083D01*
X108555305Y-64345917D02*
X107844105Y-63114083D01*
D21*
X101600591Y-67540000D03*
X110399409Y-62460000D03*
D22*
X94080000Y-96000000D03*
X91540000Y-96000000D03*
X89000000Y-96000000D03*
X86460000Y-96000000D03*
X83920000Y-96000000D03*
D15*
X121750000Y-83126240D03*
X121750000Y-84873760D03*
D14*
X114626240Y-121000000D03*
X116373760Y-121000000D03*
D15*
X101250000Y-115373760D03*
X101250000Y-113626240D03*
X106000000Y-115373760D03*
X106000000Y-113626240D03*
D14*
X98123760Y-119500000D03*
X96376240Y-119500000D03*
X114126240Y-136000000D03*
X115873760Y-136000000D03*
X114126240Y-134000000D03*
X115873760Y-134000000D03*
X144873760Y-132000000D03*
X143126240Y-132000000D03*
D22*
X139730000Y-76000000D03*
X142270000Y-76000000D03*
X142270000Y-80000000D03*
X139730000Y-80000000D03*
X142270000Y-84000000D03*
X139730000Y-84000000D03*
D15*
X124500000Y-83126240D03*
X124500000Y-84873760D03*
X127250000Y-83126240D03*
X127250000Y-84873760D03*
X130000000Y-83126240D03*
X130000000Y-84873760D03*
X132750000Y-83126240D03*
X132750000Y-84873760D03*
D23*
X109350000Y-126500000D03*
X109350000Y-126000000D03*
X109350000Y-125500000D03*
X109350000Y-125000000D03*
X109350000Y-124500000D03*
X109350000Y-124000000D03*
X109350000Y-123500000D03*
X109350000Y-123000000D03*
X109350000Y-122500000D03*
X109350000Y-122000000D03*
X109350000Y-121500000D03*
X109350000Y-121000000D03*
D24*
X107750000Y-119400000D03*
X107250000Y-119400000D03*
X106750000Y-119400000D03*
X106250000Y-119400000D03*
X105750000Y-119400000D03*
X105250000Y-119400000D03*
X104750000Y-119400000D03*
X104250000Y-119400000D03*
X103750000Y-119400000D03*
X103250000Y-119400000D03*
X102750000Y-119400000D03*
X102250000Y-119400000D03*
D23*
X100650000Y-121000000D03*
X100650000Y-121500000D03*
X100650000Y-122000000D03*
X100650000Y-122500000D03*
X100650000Y-123000000D03*
X100650000Y-123500000D03*
X100650000Y-124000000D03*
X100650000Y-124500000D03*
X100650000Y-125000000D03*
X100650000Y-125500000D03*
X100650000Y-126000000D03*
X100650000Y-126500000D03*
D24*
X102250000Y-128100000D03*
X102750000Y-128100000D03*
X103250000Y-128100000D03*
X103750000Y-128100000D03*
X104250000Y-128100000D03*
X104750000Y-128100000D03*
X105250000Y-128100000D03*
X105750000Y-128100000D03*
X106250000Y-128100000D03*
X106750000Y-128100000D03*
X107250000Y-128100000D03*
X107750000Y-128100000D03*
D25*
X136500000Y-76500000D03*
X118500000Y-76500000D03*
D26*
X118500000Y-64500000D03*
D25*
X118500000Y-66000000D03*
X118500000Y-67500000D03*
X118500000Y-69000000D03*
X118500000Y-70500000D03*
X118500000Y-72000000D03*
X118500000Y-73500000D03*
X118500000Y-75000000D03*
X136500000Y-75000000D03*
X136500000Y-73500000D03*
X136500000Y-72000000D03*
X136500000Y-70500000D03*
X136500000Y-69000000D03*
X136500000Y-67500000D03*
X136500000Y-66000000D03*
X136500000Y-64500000D03*
D27*
X128620000Y-71080000D03*
D28*
X115000000Y-130750000D03*
X115000000Y-128250000D03*
D14*
X98376240Y-80000000D03*
X100123760Y-80000000D03*
X89126240Y-93000000D03*
X90873760Y-93000000D03*
D29*
X96751340Y-85250000D03*
X103248660Y-85250000D03*
D30*
X156147820Y-121000000D03*
X147852180Y-121000000D03*
D31*
X154310000Y-134649980D03*
X154310000Y-134014980D03*
X154310000Y-133379980D03*
X154310000Y-132744980D03*
X154310000Y-132109980D03*
X154310000Y-131474980D03*
X154310000Y-130842520D03*
X154310000Y-130207520D03*
X154310000Y-129572520D03*
X154310000Y-128937520D03*
X154310000Y-128302520D03*
X154310000Y-127667520D03*
X146690000Y-127667520D03*
X146690000Y-128302520D03*
X146690000Y-128937520D03*
X146690000Y-129572520D03*
X146690000Y-130207520D03*
X146690000Y-130842520D03*
X146690000Y-131474980D03*
X146690000Y-132109980D03*
X146690000Y-132744980D03*
X146690000Y-133379980D03*
X146690000Y-134014980D03*
X146690000Y-134649980D03*
D32*
X103250000Y-73960000D03*
X103250000Y-76500000D03*
X103250000Y-79040000D03*
D22*
X112730000Y-69000000D03*
X115270000Y-69000000D03*
D32*
X94200000Y-123260000D03*
X94200000Y-125800000D03*
X94200000Y-128340000D03*
X87500000Y-113190000D03*
X87500000Y-115730000D03*
X87500000Y-118270000D03*
X87500000Y-120810000D03*
X116500000Y-98650000D03*
X116500000Y-101190000D03*
X116500000Y-103730000D03*
X116500000Y-106270000D03*
X116500000Y-108810000D03*
X116500000Y-111350000D03*
D14*
X91773760Y-113200000D03*
X90026240Y-113200000D03*
D18*
X114648080Y-114200220D03*
D19*
X113500000Y-118048320D03*
D18*
X112351920Y-114200220D03*
D33*
X92563754Y-73739275D02*
X93641384Y-72661645D01*
X97161645Y-69141384D02*
X98239275Y-68063754D01*
X95760725Y-76936246D02*
X96838355Y-75858616D01*
X100358616Y-72338355D02*
X101436246Y-71260725D01*
X86535663Y-83345233D02*
X87297663Y-82025411D01*
X89786863Y-77713989D02*
X90548863Y-76394167D01*
X90451137Y-85605833D02*
X91213137Y-84286011D01*
X93702337Y-79974589D02*
X94464337Y-78654767D01*
D32*
X119501200Y-143510600D03*
X112998800Y-143510600D03*
X119501200Y-138989400D03*
X112998800Y-138989400D03*
D34*
X113250000Y-83850000D03*
X112300000Y-81650000D03*
X114200000Y-81650000D03*
D15*
X109000000Y-115373760D03*
X109000000Y-113626240D03*
D35*
X107501780Y-69750000D03*
X109498220Y-69750000D03*
X108251780Y-82500000D03*
X110248220Y-82500000D03*
X115998220Y-64750000D03*
X114001780Y-64750000D03*
D15*
X135500000Y-80373760D03*
X135500000Y-78626240D03*
X135500000Y-84873760D03*
X135500000Y-83126240D03*
D10*
G36*
X82615874Y-93124751D02*
X83930675Y-88217848D01*
X86384126Y-88875249D01*
X85069325Y-93782152D01*
X82615874Y-93124751D01*
X82615874Y-93124751D01*
G37*
D32*
X140250000Y-66460000D03*
X140250000Y-69000000D03*
X140250000Y-71540000D03*
X144500000Y-66460000D03*
X144500000Y-69000000D03*
X144500000Y-71540000D03*
D14*
X119126240Y-125500000D03*
X120873760Y-125500000D03*
X119126240Y-123500000D03*
X120873760Y-123500000D03*
X90126240Y-115750000D03*
X91873760Y-115750000D03*
X90126240Y-123200000D03*
X91873760Y-123200000D03*
X90126240Y-125750000D03*
X91873760Y-125750000D03*
D36*
X157948180Y-105000000D03*
X154051820Y-105000000D03*
D37*
X112500000Y-134000000D03*
X112500000Y-136000000D03*
D38*
X158300000Y-98000000D03*
X157650000Y-98000000D03*
X157000000Y-98000000D03*
X156350000Y-98000000D03*
X155700000Y-98000000D03*
D39*
X160500000Y-95300000D03*
X153500000Y-95300000D03*
D40*
X159500000Y-98000000D03*
X154500000Y-98000000D03*
D14*
X98376240Y-78000000D03*
X100123760Y-78000000D03*
X89126240Y-91000000D03*
X90873760Y-91000000D03*
X91873760Y-118250000D03*
X90126240Y-118250000D03*
X91873760Y-120750000D03*
X90126240Y-120750000D03*
D41*
X165000000Y-119000000D03*
X165000000Y-117000000D03*
D42*
X115500000Y-87000000D03*
X113500000Y-87000000D03*
M02*
